<?xml version="1.0" encoding="utf-8"?>
<!-- Generator: Adobe Illustrator 24.0.3, SVG Export Plug-In . SVG Version: 6.00 Build 0)  -->
<svg version="1.1" xmlns="http://www.w3.org/2000/svg" xmlns:xlink="http://www.w3.org/1999/xlink" x="0px" y="0px"
	 viewBox="0 0 526.8 108" style="enable-background:new 0 0 526.8 108;" xml:space="preserve">
<style type="text/css">
	.st0{fill:#FA4616;}
	.st1{fill:#005776;}
</style>
<g id="Brandmark">
	<path class="st0" d="M121.7,79.5C101.5,58.5,86.4,32.6,78,3.9C77.4,1.6,75.3,0,72.9,0L50.3,0c-2.4,0-4.4,1.6-5.1,3.9
		C36.8,32.6,21.7,58.5,1.5,79.5c-1.6,1.7-2,4.3-0.8,6.4L12,105.4c1.2,2.1,3.6,3,5.9,2.5c14-3.4,28.6-5.3,43.7-5.3s29.7,1.8,43.7,5.3
		c2.3,0.6,4.7-0.4,5.9-2.5l11.3-19.5C123.7,83.9,123.3,81.3,121.7,79.5z M96.7,95.9L17.2,79c-0.5-0.1-0.7-0.7-0.4-1.1l54.4-60.4
		c0.3-0.4,1-0.2,1.1,0.2L97.5,95C97.6,95.5,97.2,96,96.7,95.9z"/>
	<g>
		<path class="st1" d="M185.8,18l-31.5,72H169l7.2-16.8h31.6l7.1,16.8h15l-31.5-72H185.8z M181.4,60.4L191.9,36l10.6,24.4H181.4z"/>
		<polygon class="st1" points="254.8,18.5 240.6,18.5 240.6,90 291.4,90 291.4,76.9 254.8,76.9 		"/>
		<path class="st1" d="M374.9,18l-31.5,72h14.6l7.2-16.8h31.6l7.1,16.8h15l-31.5-72H374.9z M370.5,60.4L381,36l10.6,24.4H370.5z"/>
		<rect x="430.8" y="18.5" class="st1" width="14.1" height="71.5"/>
		<path class="st1" d="M507.7,63.2c10.2-3.3,16-11.1,16-21.7c0-14.2-10.3-23-26.8-23h-32V90H479V65.7h13.8L510,90h16.8L507.7,63.2z
			 M479,31.6h16.8c8.7,0,13.5,3.8,13.5,10.7c0,6.6-5.1,10.8-13.4,10.8H479V31.6z"/>
		<polygon class="st1" points="287.1,18.5 287.1,32.1 309.1,32.1 309.1,90 323.6,90 323.6,32.1 345.6,32.1 345.6,18.5 		"/>
	</g>
</g>
<g id="Guides">
</g>
</svg>
